<?xml version="1.0" encoding="UTF-8" standalone="no"?>
<svg
   xmlns:dc="http://purl.org/dc/elements/1.1/"
   xmlns:cc="http://creativecommons.org/ns#"
   xmlns:rdf="http://www.w3.org/1999/02/22-rdf-syntax-ns#"
   xmlns:svg="http://www.w3.org/2000/svg"
   xmlns="http://www.w3.org/2000/svg"
   xmlns:sodipodi="http://sodipodi.sourceforge.net/DTD/sodipodi-0.dtd"
   xmlns:inkscape="http://www.inkscape.org/namespaces/inkscape"
   width="48"
   height="48"
   viewBox="0 0 48 48"
   version="1.1"
   id="svg4"
   sodipodi:docname="cloud.svg"
   inkscape:version="0.92.4 (5da689c313, 2019-01-14)">
  <metadata
     id="metadata10">
    <rdf:RDF>
      <cc:Work
         rdf:about="">
        <dc:format>image/svg+xml</dc:format>
        <dc:type
           rdf:resource="http://purl.org/dc/dcmitype/StillImage" />
      </cc:Work>
    </rdf:RDF>
  </metadata>
  <defs
     id="defs8" />
  <sodipodi:namedview
     pagecolor="#ffffff"
     bordercolor="#666666"
     borderopacity="1"
     objecttolerance="10"
     gridtolerance="10"
     guidetolerance="10"
     inkscape:pageopacity="0"
     inkscape:pageshadow="2"
     inkscape:window-width="1920"
     inkscape:window-height="1017"
     id="namedview6"
     showgrid="false"
     inkscape:zoom="6.9532167"
     inkscape:cx="-12.804563"
     inkscape:cy="30.603631"
     inkscape:window-x="1912"
     inkscape:window-y="-8"
     inkscape:window-maximized="1"
     inkscape:current-layer="g16" />
  <path
     d="m 23.648155,7.945095 c -6.198968,0.1557731 -11.481404,4.416137 -13.0251,10.30097 l -0.02367,0.09285 -0.189423,0.01523 C 5.0889113,18.82463 0.94915254,23.28186 0.94915254,28.686441 c 0,5.608526 4.45808846,10.196856 10.05044646,10.367954 l 0.304829,0.0049 h 25.373538 l 0.304796,-0.0045 c 5.609997,-0.171503 10.068085,-4.759833 10.068085,-10.368359 l -0.0044,-0.305842 C 46.893465,23.09804 42.790962,18.805551 37.588777,18.352996 l -0.189319,-0.01408 -0.02212,-0.09232 C 35.804098,12.250221 30.350185,7.940678 24,7.940678 Z M 24,10.245763 c 5.585437,0 10.339948,4.002148 11.335845,9.431287 0.101505,0.553355 0.587682,0.95257 1.150212,0.944475 l 0.208493,-0.003 c 4.439137,1.19e-4 8.051213,3.612195 8.051213,8.067916 0,4.361993 -3.467615,7.930913 -7.815853,8.063948 l -0.26955,0.004 H 11.322034 l -0.269584,-0.0044 c -4.3305977,-0.13263 -7.7982127,-3.70155 -7.7982127,-8.063543 0,-4.361994 3.467615,-7.930914 7.8158527,-8.063948 l 0.26955,-0.004 0.165742,0.0022 c 0.565894,0.01258 1.057169,-0.387626 1.159264,-0.944376 C 13.660092,14.24785 18.414618,10.245763 24,10.245763 Z"
     id="path2"
     style="fill:#2980b9;fill-opacity:1;fill-rule:nonzero;stroke-width:1.15254235"
     inkscape:connector-curvature="0" />
  <g
     transform="matrix(0.1454961,0,0,0.1454961,-100.44987,10.620041)"
     style="clip-rule:evenodd;fill-rule:evenodd"
     id="g16">
    <path
       style="display:none;fill:#2980b9"
       inkscape:connector-curvature="0"
       id="path2-4"
       d="m 940.56,0 c -0.037,0.636 -0.106,1.27 -0.106,1.907 -0.006,57.673 -0.005,115.347 -0.005,173.02 0,0.4 0.106,0.845 -0.034,1.19 -0.142,0.348 -0.485,0.675 -0.824,0.863 -0.245,0.136 -0.625,0.028 -0.945,0.028 H 770.137 c 1.78,-2.377 3.406,-4.58 5.066,-6.758 3.097,-4.06 6.24,-8.086 9.302,-12.175 0.668,-0.893 1.353,-1.26 2.48,-1.26 43.635,0.028 87.27,0.023 130.905,0.023 0.44,0 0.883,-0.037 1.318,0.007 0.86,0.087 1.158,-0.308 1.075,-1.118 -0.032,-0.316 -0.004,-0.64 -0.004,-0.96 V 22.423 c 0,-0.36 -0.026,-0.722 0,-1.08 0.063,-0.796 -0.338,-1.076 -1.076,-1.044 -0.44,0.02 -0.88,0 -1.32,0 -29.677,0 -59.354,-0.01 -89.03,0.03 -1.486,0.003 -2.54,-0.46 -3.592,-1.463 -6.557,-6.254 -13.165,-12.455 -19.76,-18.67 -0.085,-0.08 -0.2,-0.13 -0.3,-0.195 H 940.56 Z" />
    <path
       sodipodi:nodetypes="ccccccccccccccccccccsccccscccccccccccccccccccc"
       style="fill:#34495e"
       inkscape:connector-curvature="0"
       id="path4"
       d="m 804.1051,36.042527 c 4.026,3.803 8.05,7.608 12.08,11.406 2.584,2.434 5.15,4.885 7.78,7.267 0.917,0.83 1.356,1.67 1.346,2.97 -0.068,8.28 -0.008,16.56 -0.063,24.84 -0.01,1.233 0.34,1.53 1.545,1.525 14.04,-0.042 28.08,-0.023 42.12,-0.03 5.688,0 11.367,0.302 16.94,1.437 5.533,1.127 10.733,3.106 14.654,7.478 2.76,3.077 4.316,6.746 5.32,10.712003 1.208,4.775 1.366,9.645 1.377,14.52 0.014,5.72 0.056,11.445 -0.2,17.155 -0.246,5.496 -1.325,10.843 -4.21,15.676 -2.52,4.225 -6.225,6.968 -10.735,8.735 -6.862,2.69 -14.087,3.143 -21.32,3.23 -10.6,0.126 -21.2,0.088 -31.8,-0.034 -5.834,-0.067 -11.648,-0.574 -17.298,-2.233 -7.47,-2.194 -12.916,-6.603 -15.526,-14.13 -1.357,-3.918 -2.143,-7.975 -2.168,-12.092 -0.12,-19.437 -0.126,-38.878003 -0.153,-58.317003 -0.018,-12.84 -0.003,-25.68 -0.003,-38.52 v -1.51 c 0.104,-0.03 0.21,-0.055 0.313,-0.082 z m 53.947,91.820003 h -1.686 c -9.916,0 -19.832,0.014 -29.748,-0.02 -1.053,-0.005 -1.45,0.294 -1.348,1.36 0.18,1.828 0.21,3.673 0.433,5.495 0.528,4.33 2.443,7.7 6.896,8.966 1.83,0.52 3.763,0.916 5.65,0.93 11.476,0.084 22.95,0.08 34.426,0 1.85,-0.014 3.742,-0.4 5.536,-0.897 4.673,-1.296 6.75,-4.79 7.06,-9.332 0.322,-4.738 0.42,-9.5 0.4,-14.25 -0.014,-3.065 -0.226,-6.158 -0.697,-9.184 -0.537,-3.446 -2.375,-6.172 -5.934,-7.103 -2.37,-0.62 -4.854,-1.106 -7.293,-1.126 -15.113,-0.124 -30.228,-0.092 -45.34,-0.14 -0.933,0 -1.148,0.373 -1.142,1.214 0.03,3.64 0.012,7.278 0.013,10.917 0,1.58 0.004,1.584 1.57,1.584 9.877,0.003 19.753,0 29.63,0.005 0.505,0 1.01,0.046 1.574,0.072 0.002,3.852 0.002,7.59 0.002,11.512 z" />
    <text
       xml:space="preserve"
       style="font-style:normal;font-weight:normal;font-size:161.55018616px;line-height:100.96887207px;font-family:sans-serif;letter-spacing:0px;word-spacing:0px;fill:#2980b9;fill-opacity:1;stroke:none;stroke-width:4.03875494"
       x="720.17639"
       y="164.59616"
       id="text829"><tspan
         sodipodi:role="line"
         id="tspan827"
         x="720.17639"
         y="164.59616"
         style="font-style:normal;font-variant:normal;font-weight:normal;font-stretch:normal;font-family:Calibri;-inkscape-font-specification:Calibri;fill:#2980b9;fill-opacity:1;stroke-width:4.03875494">&lt;</tspan></text>
    <text
       id="text833"
       y="164.59616"
       x="909.44855"
       style="font-style:normal;font-weight:normal;font-size:161.55018616px;line-height:100.96887207px;font-family:sans-serif;letter-spacing:0px;word-spacing:0px;fill:#2980b9;fill-opacity:1;stroke:none;stroke-width:4.03875494"
       xml:space="preserve"><tspan
         style="font-style:normal;font-variant:normal;font-weight:normal;font-stretch:normal;font-family:Calibri;-inkscape-font-specification:Calibri;fill:#2980b9;fill-opacity:1;stroke-width:4.03875494"
         y="164.59616"
         x="909.44855"
         id="tspan831"
         sodipodi:role="line">&gt;</tspan></text>
  </g>
</svg>
